<?xml version="1.0" encoding="utf-8"?>
<!-- Generator: Adobe Illustrator 21.0.0, SVG Export Plug-In . SVG Version: 6.00 Build 0)  -->
<svg version="1.1" id="Layer_1" xmlns="http://www.w3.org/2000/svg" xmlns:xlink="http://www.w3.org/1999/xlink" x="0px" y="0px"
	 viewBox="0 0 16 16" style="enable-background:new 0 0 16 16;" xml:space="preserve">
<style type="text/css">
	.st0{fill:#214155;}
</style>
<path class="st0" d="M15.9,13.2h-3.7c-0.1,0-0.1,0-0.1,0.1v1c0,0.1,0,0.1,0.1,0.1h3.7c0.1,0,0.1,0,0.1-0.1v-1
	C16,13.2,16,13.2,15.9,13.2L15.9,13.2z M11,1.6C11,1.7,11,1.7,11,1.6l0,12.6c0,0,0,0.1,0,0.1c0,0-0.1,0-0.1,0H0.1c0,0-0.1,0-0.1,0
	c0,0,0-0.1,0-0.1V1.7c0,0,0-0.1,0.1-0.1L11,1.6C10.9,1.6,11,1.6,11,1.6L11,1.6L11,1.6z M1.2,13.1c0,0.1,0,0.1,0.1,0.1h8.4
	c0,0,0.1-0.1,0.1-0.1V2.9c0,0,0-0.1-0.1-0.1H1.3c0,0-0.1,0-0.1,0.1L1.2,13.1L1.2,13.1z M4.6,7.4c0.4,0,0.7,0.2,1,0.5
	c0,0.1,0.1,0.1,0.2,0l0.7-0.6c0.1,0,0-0.1,0-0.2C6,6.6,5.4,6.3,4.6,6.3c-1.1,0-1.9,0.5-2.2,1.5C2.3,8.1,2.3,8.5,2.3,9.1s0,1,0.2,1.3
	c0.3,0.9,1.1,1.5,2.2,1.5c0.8,0,1.4-0.3,1.8-0.8c0-0.1,0-0.1,0-0.2l-0.7-0.6c-0.1,0-0.1,0-0.2,0c-0.3,0.3-0.5,0.5-1,0.5
	c-0.5,0-0.8-0.2-1-0.7c-0.1-0.3-0.1-0.6-0.1-1c0-0.4,0-0.7,0.1-1C3.8,7.6,4.1,7.4,4.6,7.4L4.6,7.4z"/>
</svg>
