<?xml version="1.0" encoding="utf-8"?>
<!-- Generator: Adobe Illustrator 21.0.0, SVG Export Plug-In . SVG Version: 6.00 Build 0)  -->
<svg version="1.1" id="Layer_1" xmlns="http://www.w3.org/2000/svg" xmlns:xlink="http://www.w3.org/1999/xlink" x="0px" y="0px"
	 viewBox="0 0 980 516" style="enable-background:new 0 0 980 516;" xml:space="preserve">
<style type="text/css">
	.st0{fill:#4D8BD9;}
</style>
<g transform="translate(0.000000,516.000000) scale(0.100000,-0.100000)">
	<path class="st0" d="M2323,5135c-629-85-1203-364-1599-777c-317-331-542-741-653-1190c-51-203-62-290-68-518c-9-375,20-596,118-895
		C323,1141,821,580,1425,285c278-136,598-227,893-256c151-15,625-15,767,1c485,51,963,247,1334,546c101,81,282,259,371,365
		c101,119,242,371,690,1229c445,852,540,1010,725,1196c163,166,341,258,607,316c134,29,431,36,550,14c457-86,817-402,924-811
		c35-134,44-348,20-480c-40-216-111-375-246-546c-94-119-210-209-375-291c-201-100-287-118-590-125c-275-6-403,4-527,43
		c-186,59-254,109-559,411l-237,234l-80-153c-183-350-593-1181-588-1193c5-15,199-164,371-287c218-155,429-260,710-354
		c272-90,475-122,835-131c411-10,699,32,1065,154c789,264,1439,962,1640,1758c54,217,70,357,69,625c0,169-5,269-18,355
		c-47,325-108,512-266,823c-99,195-174,316-270,437c-95,118-341,359-457,448c-311,237-744,422-1159,496c-364,65-792,52-1178-34
		c-308-69-654-212-901-373c-265-172-636-557-818-848c-70-113-314-594-592-1168c-281-579-353-703-505-860c-265-275-525-387-900-388
		c-399,0-717,122-943,361c-86,92-138,169-203,305c-85,178-98,243-99,481c0,223,10,287,68,430c84,207,315,452,534,567
		c109,57,262,106,368,119c175,20,461,5,628-32c53-12,99-20,100-18c2,2,30,54,62,114c32,61,188,337,346,614c159,277,289,506,289,511
		c0,11-275,115-395,149c-284,79-449,101-800,106C2499,5148,2396,5145,2323,5135z"/>
</g>
</svg>
