<?xml version="1.0" encoding="utf-8"?>
<!-- Generator: Adobe Illustrator 21.0.0, SVG Export Plug-In . SVG Version: 6.00 Build 0)  -->
<svg version="1.1" id="Layer_1" xmlns="http://www.w3.org/2000/svg" xmlns:xlink="http://www.w3.org/1999/xlink" x="0px" y="0px"
	 viewBox="0 0 501 501" style="enable-background:new 0 0 501 501;" xml:space="preserve">
<style type="text/css">
	.st0{fill:#3D78BA;}
	.st1{fill:#E1242D;}
</style>
<g transform="translate(0.000000,501.000000) scale(0.100000,-0.100000)">
	<path class="st0" d="M2735,4204c-165-20-437-76-621-129c-457-131-813-337-1036-601c-203-238-350-533-404-811c-27-133-25-395,4-530
		c41-188,121-385,217-529c211-316,644-597,1140-739c491-141,1051-48,1458,242c107,77,267,237,344,346c162,230,268,523,302,839
		c14,123,14,371,1,553c-31,422-105,729-232,954c-49,87-221,269-303,320c-112,71-284,101-560,100C2941,4218,2801,4211,2735,4204z
		 M2060,2900c19-19,20-33,20-350c0-257,3-338,14-363c20-49,68-84,131-97c102-21,195,11,242,82l28,41l3,336c3,291,5,338,19,353
		c22,24,68,23,93-2c20-20,21-30,18-373c-3-345-3-353-26-395c-35-66-88-119-150-149c-52-25-67-28-167-28c-94,0-117,3-160,23
		c-65,30-122,85-151,147c-24,50-24,52-24,404c0,316,2,356,17,373C1988,2926,2035,2925,2060,2900z M2943,2898c12-13,130-168,262-346
		l240-323l5,325c5,301,6,325,24,345c27,30,70,27,95-5c21-26,21-37,21-455c0-306-3-435-12-454c-13-28-45-41-80-31
		c-15,4-109,121-273,343l-250,336l-5-320c-5-298-6-322-24-342c-26-29-80-28-100,1c-14,20-16,81-16,464v443l26,20
		C2890,2926,2915,2925,2943,2898z M1752,2873c22-20,23-70,1-95c-15-16-36-18-240-18h-223v-140v-140h173c196,0,217-6,217-63
		c0-69-24-77-224-77h-166v-166c0-197-8-223-72-224c-16,0-37,9-48,20c-19,19-20,33-20,448c0,371,2,431,16,450c15,22,17,22,291,22
		C1700,2890,1736,2888,1752,2873z"/>
	<path class="st1" d="M4045,1224c-39-10-80-28-108-47c-87-60-93-244-10-319c91-82,269-73,354,19c46,49,63,93,64,164
		c0,57-4,70-29,103c-16,22-49,47-75,59C4197,1222,4087,1234,4045,1224z"/>
</g>
</svg>
